<?xml version="1.0" encoding="utf-8"?>
<!-- Generator: Adobe Illustrator 15.1.0, SVG Export Plug-In . SVG Version: 6.00 Build 0)  -->
<!DOCTYPE svg PUBLIC "-//W3C//DTD SVG 1.1//EN" "http://www.w3.org/Graphics/SVG/1.1/DTD/svg11.dtd">
<svg version="1.1" id="Ebene_1" xmlns="http://www.w3.org/2000/svg" xmlns:xlink="http://www.w3.org/1999/xlink" x="0px" y="0px"
	 width="150px" height="40px" viewBox="0 0 150 40" enable-background="new 0 0 150 40" xml:space="preserve">
<g>
	<path fill="#6CC6D8" d="M10,0C10,0,0,0,0,10v20c0,0,0,10,10,10h130c0,0,10,0,10-10V10c0,0,0-10-10-10H10z"/>
</g>
<g>
	<defs>
		<rect id="SVGID_1_" x="-8" y="4.727" width="167" height="30.813"/>
	</defs>
	<clipPath id="SVGID_2_">
		<use xlink:href="#SVGID_1_"  overflow="visible"/>
	</clipPath>
	<path clip-path="url(#SVGID_2_)" fill="#FFFFFF" d="M21.676,16.201c-0.826-1.623-1.153-3.079-2.618-2.218
		c-0.742,0.347-4.922,3.656,0.919,9.496v0.001c5.84,5.84,9.149,1.66,9.497,0.918c0.86-1.464-0.596-1.792-2.219-2.618
		c-1.623-0.825-1.766,1.396-2.893,1.14c-0.33-0.076-1.28-0.837-2.151-1.675c-0.838-0.87-1.598-1.82-1.675-2.15
		C20.281,17.968,22.502,17.824,21.676,16.201"/>
</g>
<text transform="matrix(1 0 0 1 31.2261 26.541)" fill="#FFFFFF" font-family="'Montserrat-Regular'" font-size="15"> </text>
<g>
	<path fill="#FFFFFF" d="M47.44,20.045c0,3.406-1.59,5.295-4.455,5.295c-2.88,0-4.47-1.89-4.47-5.295c0-3.404,1.59-5.294,4.47-5.294
		C45.851,14.751,47.44,16.641,47.44,20.045z M40.331,20.045c0,2.656,0.885,3.901,2.655,3.901c1.755,0,2.64-1.245,2.64-3.901
		c0-2.67-0.885-3.899-2.64-3.899C41.216,16.146,40.331,17.375,40.331,20.045z"/>
	<path fill="#FFFFFF" d="M54.13,19.22c1.755,0.15,2.955,1.17,2.955,2.821c0,1.965-1.485,3.33-3.825,3.33
		c-1.29,0-2.64-0.45-3.54-1.141l0.735-1.439c0.75,0.705,1.725,1.095,2.685,1.095c1.395,0,2.205-0.72,2.205-1.8
		c0-1.14-0.825-1.725-2.22-1.725H51.67v-1.035l2.73-2.939h-4.2v-1.575h6.39v1.109l-3,3.24L54.13,19.22z"/>
	<path fill="#FFFFFF" d="M67.63,15.516l-0.69,1.335c-0.645-0.42-1.53-0.66-2.325-0.66c-2.04,0-2.985,1.53-2.925,3.795
		c0.555-0.976,1.545-1.485,2.865-1.485c2.1,0,3.375,1.305,3.375,3.345c0,2.175-1.455,3.525-3.69,3.525
		c-2.655,0-4.275-1.89-4.275-5.116c0-3.345,1.755-5.535,4.53-5.535C65.53,14.721,66.775,15.036,67.63,15.516z M61.976,21.891
		c-0.015,0.915,0.66,1.95,2.175,1.95c1.275,0,2.13-0.734,2.13-2.01c0-1.201-0.78-1.935-2.055-1.935
		C62.8,19.896,61.96,20.811,61.976,21.891z"/>
	<path fill="#FFFFFF" d="M72.791,16.386v2.265l1.439-0.016c2.281,0,3.75,1.351,3.75,3.196c0,2.13-1.53,3.524-3.885,3.524
		c-1.245,0-2.7-0.479-3.735-1.199l0.705-1.44c0.84,0.705,1.891,1.11,2.835,1.11c1.365,0,2.191-0.705,2.191-1.891
		c0-1.065-0.826-1.725-2.175-1.725c-0.631,0-2.056,0.061-2.761,0.135v-5.549h6.39l0.016,1.59H72.791z"/>
	<path fill="#FFFFFF" d="M79.796,27.051l4.755-13.995h1.471l-4.755,13.995H79.796z"/>
	<path fill="#FFFFFF" d="M89.396,16.386v2.265l1.439-0.016c2.28,0,3.75,1.351,3.75,3.196c0,2.13-1.53,3.524-3.885,3.524
		c-1.245,0-2.7-0.479-3.735-1.199l0.705-1.44c0.84,0.705,1.891,1.11,2.835,1.11c1.365,0,2.19-0.705,2.19-1.891
		c0-1.065-0.825-1.725-2.175-1.725c-0.631,0-2.056,0.061-2.761,0.135v-5.549h6.39l0.016,1.59H89.396z"/>
	<path fill="#FFFFFF" d="M98.98,25.296v-8.925h-2.055v-1.575h3.824v10.5H98.98z"/>
	<path fill="#FFFFFF" d="M111.7,17.361c0,1.064-0.811,2.25-1.92,3.45l-2.73,2.895h5.13v1.59h-7.47v-1.29l3.87-4.155
		c0.765-0.78,1.274-1.636,1.274-2.235c0-0.84-0.659-1.35-1.755-1.35c-0.915,0-1.979,0.51-2.864,1.319l-0.705-1.364
		c1.14-0.93,2.475-1.5,3.824-1.5C110.335,14.721,111.7,15.755,111.7,17.361z"/>
	<path fill="#FFFFFF" d="M122.006,17.361c0,1.064-0.811,2.25-1.92,3.45l-2.73,2.895h5.13v1.59h-7.47v-1.29l3.87-4.155
		c0.765-0.78,1.274-1.636,1.274-2.235c0-0.84-0.659-1.35-1.755-1.35c-0.915,0-1.979,0.51-2.864,1.319l-0.705-1.364
		c1.14-0.93,2.475-1.5,3.825-1.5C120.641,14.721,122.006,15.755,122.006,17.361z"/>
	<path fill="#FFFFFF" d="M132.88,17.436c0,1.02-0.585,1.814-1.56,2.25c1.274,0.42,2.085,1.395,2.085,2.67
		c0,1.874-1.561,3.015-4.051,3.015c-2.475,0-4.034-1.141-4.034-2.985c0-1.29,0.825-2.28,2.16-2.7
		c-1.021-0.466-1.636-1.29-1.636-2.311c0-1.649,1.365-2.655,3.51-2.655C131.515,14.721,132.88,15.755,132.88,17.436z M127,22.191
		c0,1.14,0.855,1.784,2.354,1.784c1.5,0,2.37-0.645,2.37-1.784c0-1.096-0.87-1.741-2.37-1.741C127.87,20.451,127,21.096,127,22.191z
		 M127.345,17.541c0,0.976,0.75,1.53,2.01,1.53c1.275,0,2.011-0.555,2.011-1.53c0-0.975-0.735-1.545-2.011-1.545
		C128.095,15.996,127.345,16.566,127.345,17.541z"/>
</g>
</svg>
