<?xml version="1.0" encoding="utf-8"?>
<!-- Generator: Adobe Illustrator 15.1.0, SVG Export Plug-In . SVG Version: 6.00 Build 0)  -->
<!DOCTYPE svg PUBLIC "-//W3C//DTD SVG 1.1//EN" "http://www.w3.org/Graphics/SVG/1.1/DTD/svg11.dtd">
<svg version="1.1" id="Ebene_1" xmlns="http://www.w3.org/2000/svg" xmlns:xlink="http://www.w3.org/1999/xlink" x="0px" y="0px"
	 width="150px" height="40px" viewBox="0 0 150 40" enable-background="new 0 0 150 40" xml:space="preserve">
<g>
	<path fill="#6CC6D8" d="M10,0C10,0,0,0,0,10v20c0,0,0,10,10,10h130c0,0,10,0,10-10V10c0,0,0-10-10-10H10z"/>
</g>
<g>
	<path fill="#FFFFFF" d="M51.188,16.475v2.834h5.13v1.591h-5.13v2.895h5.91v1.59h-7.68v-10.5h7.5v1.591H51.188z"/>
	<path fill="#FFFFFF" d="M70.373,25.384l-0.015-7.845l-3.315,6.75h-1.155l-3.315-6.75v7.845h-1.665v-10.5h2.1l3.465,6.976
		l3.45-6.976h2.085v10.5H70.373z"/>
	<path fill="#FFFFFF" d="M77.918,23.014l-1.006,2.37h-1.844l4.635-10.5h1.814l4.59,10.5h-1.891l-1.004-2.37H77.918z M80.558,16.774
		l-1.979,4.664h3.959L80.558,16.774z"/>
	<path fill="#FFFFFF" d="M89.152,25.384v-10.5h1.77v10.5H89.152z"/>
	<path fill="#FFFFFF" d="M101.647,23.779v1.604h-6.315v-10.5h1.771v8.896H101.647z"/>
</g>
</svg>
