<?xml version="1.0" encoding="utf-8"?>
<!-- Generator: Adobe Illustrator 15.1.0, SVG Export Plug-In . SVG Version: 6.00 Build 0)  -->
<!DOCTYPE svg PUBLIC "-//W3C//DTD SVG 1.1//EN" "http://www.w3.org/Graphics/SVG/1.1/DTD/svg11.dtd">
<svg version="1.1" id="Ebene_1" xmlns="http://www.w3.org/2000/svg" xmlns:xlink="http://www.w3.org/1999/xlink" x="0px" y="0px"
	 width="150px" height="40px" viewBox="0 0 150 40" enable-background="new 0 0 150 40" xml:space="preserve">
<g>
	<path fill="#6CC6D8" d="M10,0C10,0,0,0,0,10v20c0,0,0,10,10,10h130c0,0,10,0,10-10V10c0,0,0-10-10-10H10z"/>
</g>
<g>
	<defs>
		<rect id="SVGID_1_" x="26.5" y="14.882" width="98.636" height="10.618"/>
	</defs>
	<clipPath id="SVGID_2_">
		<use xlink:href="#SVGID_1_"  overflow="visible"/>
	</clipPath>
	<path clip-path="url(#SVGID_2_)" fill="#FFFFFF" d="M119.588,16.47c2.055,0,3.735,1.62,3.735,3.706
		c0,2.085-1.681,3.736-3.735,3.736c-2.057,0-3.781-1.651-3.781-3.736C115.807,18.09,117.517,16.47,119.588,16.47 M119.572,14.882
		c-3.136,0-5.563,2.278-5.563,5.294c0,3.001,2.428,5.324,5.563,5.324s5.564-2.323,5.564-5.324S122.708,14.882,119.572,14.882
		 M111.637,16.515l0.015-1.588h-7.048v10.498h1.769V21.12h4.77v-1.573h-4.77v-3.032H111.637z M100.177,25.425V14.927h-1.738v7.544
		l-5.627-7.544h-1.738v10.498h1.769v-7.528l5.597,7.528H100.177z M86.662,14.927h-1.769v10.498h1.769V14.927z M68.798,20.672v-4.157
		h2.491c1.62,0,2.55,0.66,2.55,2.041c0,1.427-0.93,2.116-2.55,2.116H68.798z M73.688,25.425h2.009l-2.354-3.51
		c1.394-0.539,2.174-1.723,2.174-3.404c0-2.28-1.544-3.584-4.229-3.584h-4.261v10.498h1.77V22.26h2.491c0.165,0,0.33,0,0.479-0.015
		L73.688,25.425z M62.618,25.425V14.927H60.85v4.561h-5.567v-4.561h-1.768v10.498h1.768v-4.35h5.567v4.35H62.618z M49.522,16.515
		v-1.588h-7.498v10.498h7.678v-1.588h-5.91V20.94h5.13v-1.589h-5.13v-2.837H49.522z M37.597,25.425V14.927h-2.088l-3.448,6.975
		l-3.463-6.975H26.5v10.498h1.663V17.58l3.314,6.75h1.154l3.313-6.75l0.015,7.845H37.597z"/>
</g>
</svg>
