<?xml version="1.0" encoding="utf-8"?>
<!-- Generator: Adobe Illustrator 15.1.0, SVG Export Plug-In . SVG Version: 6.00 Build 0)  -->
<!DOCTYPE svg PUBLIC "-//W3C//DTD SVG 1.1//EN" "http://www.w3.org/Graphics/SVG/1.1/DTD/svg11.dtd">
<svg version="1.1" id="Ebene_1" xmlns="http://www.w3.org/2000/svg" xmlns:xlink="http://www.w3.org/1999/xlink" x="0px" y="0px"
	 width="80px" height="80px" viewBox="0 0 80 80" enable-background="new 0 0 80 80" xml:space="preserve">
<g>
	<g>
		<path fill="#FFFFFF" d="M40,80C17.944,80,0,62.056,0,40C0,17.944,17.944,0,40,0c22.056,0,40,17.944,40,40
			C80,62.056,62.056,80,40,80z M40,2.5C19.322,2.5,2.5,19.322,2.5,40S19.322,77.5,40,77.5S77.5,60.678,77.5,40S60.678,2.5,40,2.5z"
			/>
	</g>
	<g>
		<path fill="#FFFFFF" d="M23.25,26.083c-0.75,0.026-0.75,0.533-0.75,0.75v28.5c0.026,0.75,0.533,0.75,0.75,0.75h33.486
			c0.764-0.028,0.764-0.534,0.764-0.75v-28.5c-0.025-0.75-0.533-0.75-0.75-0.75H23.25z M56.75,58.583h-33.5
			c-2.384,0-3.25-1.943-3.25-3.25v-28.5c0-2.384,1.943-3.25,3.25-3.25h33.5c2.385,0,3.25,1.943,3.25,3.25v28.5
			C60,57.718,58.057,58.583,56.75,58.583"/>
	</g>
</g>
<g>
	<rect x="29.425" y="36.182" fill="#FFFFFF" width="3" height="3"/>
</g>
<g>
	<rect x="38.45" y="36.182" fill="#FFFFFF" width="3" height="3"/>
</g>
<g>
	<rect x="47.475" y="36.182" fill="#FFFFFF" width="3" height="3"/>
</g>
<g>
	<rect x="29.425" y="42.483" fill="#FFFFFF" width="3" height="3"/>
</g>
<g>
	<rect x="38.45" y="42.483" fill="#FFFFFF" width="3" height="3"/>
</g>
<g>
	<rect x="47.475" y="42.483" fill="#FFFFFF" width="3" height="3"/>
</g>
<rect x="29.425" y="48.783" fill="#FFFFFF" width="3" height="3"/>
<rect x="38.45" y="48.783" fill="#FFFFFF" width="3" height="3"/>
<rect x="47.475" y="48.783" fill="#FFFFFF" width="3" height="3"/>
<g>
	<rect x="21.564" y="29.333" fill="#FFFFFF" width="36.741" height="2.5"/>
</g>
<g>
	<g>
		<path fill="#FFFFFF" d="M30.525,25.708c-0.69,0-1.25-0.56-1.25-1.25v-4.625c0-0.69,0.56-1.25,1.25-1.25s1.25,0.56,1.25,1.25v4.625
			C31.775,25.148,31.215,25.708,30.525,25.708"/>
	</g>
	<g>
		<path fill="#FFFFFF" d="M49.025,25.708c-0.69,0-1.25-0.56-1.25-1.25v-4.625c0-0.69,0.56-1.25,1.25-1.25s1.25,0.56,1.25,1.25v4.625
			C50.275,25.148,49.716,25.708,49.025,25.708"/>
	</g>
</g>
</svg>
