<?xml version="1.0" encoding="utf-8"?>
<!-- Generator: Adobe Illustrator 15.1.0, SVG Export Plug-In . SVG Version: 6.00 Build 0)  -->
<!DOCTYPE svg PUBLIC "-//W3C//DTD SVG 1.1//EN" "http://www.w3.org/Graphics/SVG/1.1/DTD/svg11.dtd">
<svg version="1.1" id="Ebene_1" xmlns="http://www.w3.org/2000/svg" xmlns:xlink="http://www.w3.org/1999/xlink" x="0px" y="0px"
	 width="80px" height="80px" viewBox="0 0 80 80" enable-background="new 0 0 80 80" xml:space="preserve">
<g>
	<g>
		<path fill="#FFFFFF" d="M40,80C17.944,80,0,62.056,0,40C0,17.944,17.944,0,40,0c22.056,0,40,17.944,40,40
			C80,62.056,62.056,80,40,80z M40,2.5C19.322,2.5,2.5,19.322,2.5,40S19.322,77.5,40,77.5S77.5,60.678,77.5,40S60.678,2.5,40,2.5z"
			/>
	</g>
</g>
<g>
	<polygon fill="#FFFFFF" points="43.104,39.054 47.895,37.046 43.1,33.911 	"/>
</g>
<g>
	<g>
		<path fill="#FFFFFF" d="M56.443,23.799l1.039-1.611c0,0,0.545-0.844-0.293-1.392l-3.118-2.038c0,0-0.839-0.548-1.384,0.295
			l-1.039,1.612L56.443,23.799z"/>
	</g>
</g>
<g>
	<polygon fill="#FFFFFF" points="50.516,22.42 44.247,32.137 49.043,35.272 55.311,25.554 	"/>
</g>
<g>
	<g>
		<path fill="#FFFFFF" d="M53.034,29.089H46.2l-1.624,2.5h6.832L53.034,29.089z M60,55.333V32.339c0-1.307-0.865-3.25-3.25-3.25
			h-0.532l-1.627,2.5h2.159c0.217,0,0.725,0,0.75,0.75v22.994c0,0.216,0,0.722-0.764,0.75H23.25c-0.217,0-0.724,0-0.75-0.75V32.339
			c0-0.217,0-0.724,0.75-0.75h18.345l1.624-2.5H23.25c-1.307,0-3.25,0.866-3.25,3.25v22.994c0,1.307,0.866,3.25,3.25,3.25h33.5
			C58.057,58.583,60,57.718,60,55.333"/>
	</g>
	<g>
		<path fill="#FFFFFF" d="M38.05,39.183h-9.366c-0.691,0-1.25-0.56-1.25-1.25c0-0.69,0.559-1.25,1.25-1.25h9.366
			c0.69,0,1.25,0.56,1.25,1.25C39.3,38.623,38.74,39.183,38.05,39.183"/>
	</g>
	<g>
		<path fill="#FFFFFF" d="M51.184,45.233h-22.5c-0.69,0-1.25-0.561-1.25-1.25c0-0.69,0.56-1.25,1.25-1.25h22.5
			c0.69,0,1.25,0.56,1.25,1.25C52.434,44.673,51.874,45.233,51.184,45.233"/>
	</g>
	<g>
		<path fill="#FFFFFF" d="M51.184,51.283h-22.5c-0.69,0-1.25-0.561-1.25-1.25c0-0.69,0.56-1.25,1.25-1.25h22.5
			c0.69,0,1.25,0.56,1.25,1.25C52.434,50.723,51.874,51.283,51.184,51.283"/>
	</g>
</g>
</svg>
