<?xml version="1.0" encoding="utf-8"?>
<!-- Generator: Adobe Illustrator 15.1.0, SVG Export Plug-In . SVG Version: 6.00 Build 0)  -->
<!DOCTYPE svg PUBLIC "-//W3C//DTD SVG 1.1//EN" "http://www.w3.org/Graphics/SVG/1.1/DTD/svg11.dtd">
<svg version="1.1" id="Ebene_1" xmlns="http://www.w3.org/2000/svg" xmlns:xlink="http://www.w3.org/1999/xlink" x="0px" y="0px"
	 width="40px" height="40px" viewBox="0 0 40 40" enable-background="new 0 0 40 40" xml:space="preserve">
<g>
	<defs>
		<path id="SVGID_1_" d="M2.5,20c0,9.665,7.835,17.5,17.5,17.5S37.5,29.665,37.5,20S29.665,2.5,20,2.5S2.5,10.335,2.5,20"/>
	</defs>
	<clipPath id="SVGID_2_">
		<use xlink:href="#SVGID_1_"  overflow="visible"/>
	</clipPath>
	<g clip-path="url(#SVGID_2_)">
		<path fill="#91ACBC" d="M17.15,28.755l-6.002-5.062c-0.528-0.445-0.595-1.234-0.15-1.762s1.234-0.594,1.761-0.15l4.082,3.442
			l10.222-12.245c0.444-0.528,1.23-0.602,1.761-0.158c0.53,0.442,0.602,1.23,0.159,1.761L17.15,28.755z"/>
	</g>
</g>
<g>
	<g>
		<path fill="#91ACBC" d="M20,40C8.972,40,0,31.028,0,20C0,8.972,8.972,0,20,0c11.028,0,20,8.972,20,20C40,31.028,31.028,40,20,40z
			 M20,2.5C10.351,2.5,2.5,10.351,2.5,20S10.351,37.5,20,37.5S37.5,29.649,37.5,20S29.649,2.5,20,2.5z"/>
	</g>
</g>
</svg>
