<?xml version="1.0" encoding="utf-8"?>
<!-- Generator: Adobe Illustrator 15.1.0, SVG Export Plug-In . SVG Version: 6.00 Build 0)  -->
<!DOCTYPE svg PUBLIC "-//W3C//DTD SVG 1.1//EN" "http://www.w3.org/Graphics/SVG/1.1/DTD/svg11.dtd">
<svg version="1.1" id="Ebene_1" xmlns="http://www.w3.org/2000/svg" xmlns:xlink="http://www.w3.org/1999/xlink" x="0px" y="0px"
	 width="70px" height="70px" viewBox="0 0 70 70" enable-background="new 0 0 70 70" xml:space="preserve">
<g>
	<path fill="#91ACBC" d="M5.339,11.18c7.878,6.938,18.187,11.18,29.51,11.18s21.631-4.242,29.51-11.18C56.48,4.242,46.173,0,34.85,0
		S13.217,4.242,5.339,11.18"/>
	<path fill="#91ACBC" d="M30.399,70c2.069-10.292,0.588-21.34-5.073-31.146c-5.662-9.806-14.49-16.613-24.437-19.967
		C-1.18,29.179,0.301,40.229,5.962,50.033C11.624,59.839,20.452,66.646,30.399,70"/>
	<path fill="#91ACBC" d="M68.81,18.888c-9.947,3.354-18.775,10.161-24.438,19.967c-5.661,9.805-7.142,20.854-5.072,31.146
		c9.946-3.354,18.774-10.161,24.437-19.968C69.397,40.228,70.878,29.18,68.81,18.888"/>
</g>
</svg>
